<svg width="128" height="38" viewBox="0 0 128 38" fill="none" xmlns="http://www.w3.org/2000/svg">
  <rect width="128" height="38" rx="4" fill="#000000"/>
  <g transform="translate(11, 8.29)">
    <!-- Apple Icon -->
    <path d="M16 4.5C15.2 5.5 13.8 6.2 12.5 6C12.3 4.7 13 3.3 13.7 2.5C14.5 1.5 15.9 0.9 17 0.8C17.2 2.2 16.7 3.6 16 4.5Z" fill="white"/>
    <path d="M17 7C14.5 7 13.5 8.5 12 8.5C10.4 8.5 9.2 7 7.2 7C4.5 7 2 9 2 12.5C2 15.5 3.5 18.8 5 20.8C6.2 22.3 7.2 23.5 8.7 23.5C10.2 23.5 10.8 22.5 13 22.5C15.2 22.5 15.7 23.5 17.3 23.5C18.8 23.5 19.9 22.2 21 20.7C22.3 19 22.8 17.3 22.8 17.2C22.8 17.2 19.8 16 19.8 12.5C19.8 9.5 22.2 8.2 22.3 8.1C21 6.2 19 6 18.5 6C17.8 6 17.3 6.2 17 7Z" fill="white"/>

    <!-- Text -->
    <text x="32" y="8" font-family="Arial, sans-serif" font-size="8" fill="white" font-weight="400">Download on the</text>
    <text x="32" y="20" font-family="Arial, sans-serif" font-size="12" fill="white" font-weight="700">App Store</text>
  </g>
</svg>
